<svg class="icon" viewBox="0 0 1024 1024" xmlns="http://www.w3.org/2000/svg" width="200" height="200"><defs><style/></defs><path d="M770.133 917.333h-140.8c-25.6 0-44.8-19.2-44.8-44.8V618.667s0-2.134-2.133-2.134H441.6c-2.133 0-2.133 0-2.133 2.134v253.866c0 25.6-19.2 44.8-44.8 44.8h-140.8c-25.6 0-44.8-19.2-44.8-44.8V490.667s0-2.134-2.134-2.134h-55.466c-19.2 0-36.267-10.666-42.667-29.866-6.4-17.067-2.133-36.267 12.8-49.067l360.533-292.267c17.067-14.933 40.534-14.933 57.6 0l360.534 294.4c14.933 12.8 19.2 32 12.8 49.067-6.4 17.067-23.467 29.867-42.667 29.867h-53.333c-2.134 0-2.134 0-2.134 2.133v381.867c0 23.466-19.2 42.666-44.8 42.666zM441.6 573.867h140.8c25.6 0 44.8 19.2 44.8 44.8v253.866s0 2.134 2.133 2.134h140.8c2.134 0 2.134 0 2.134-2.134V490.667c0-25.6 19.2-44.8 44.8-44.8H870.4s2.133 0 2.133-2.134l-358.4-294.4h-4.266l-360.534 294.4c0 2.134 2.134 2.134 2.134 2.134H204.8c25.6 0 44.8 19.2 44.8 44.8v381.866s0 2.134 2.133 2.134h140.8c2.134 0 2.134 0 2.134-2.134V618.667c2.133-25.6 21.333-44.8 46.933-44.8z"/></svg>