<svg class="icon" viewBox="0 0 1024 1024" xmlns="http://www.w3.org/2000/svg" width="200" height="200"><defs><style/></defs><path d="M789.333 891.26h-184.13c-11.757 0-21.333-9.577-21.333-21.334V697.458H440.13v172.468c0 11.757-9.576 21.333-21.333 21.333h-184.13c-11.757 0-21.334-9.576-21.334-21.333V514.37c0-11.757 9.577-21.333 21.334-21.333S256 502.613 256 514.37v334.223h141.464V676.124c0-11.757 9.576-21.333 21.333-21.333h186.5c11.758 0 21.334 9.576 21.334 21.333v172.469H768V514.37c0-11.757 9.576-21.333 21.333-21.333s21.334 9.576 21.334 21.333v355.556c0 11.757-9.577 21.333-21.334 21.333z" fill="#1296db"/><path d="M874.667 536.652a21.334 21.334 0 01-15.076-6.258L512 184.225l-347.591 346.17c-8.344 8.343-21.808 8.248-30.151-.096-8.344-8.343-8.25-21.902.095-30.15l362.666-361.245c8.344-8.25 21.808-8.25 30.151 0l362.667 361.244c8.344 8.344 8.344 21.808.095 30.151-4.362 4.267-9.766 6.353-15.265 6.353zm-86.282-171.615c-11.757 0-21.333-9.576-21.333-21.333v-104.77h-104.77c-11.758 0-21.334-9.577-21.334-21.334s9.576-21.333 21.333-21.333h126.104c11.757 0 21.334 9.576 21.334 21.333v126.104c0 11.757-9.577 21.333-21.334 21.333z" fill="#1296db"/></svg>